<svg width="33" height="32" viewBox="0 0 33 32" fill="none" xmlns="http://www.w3.org/2000/svg">
<path d="M26.2062 10.2601C24.933 8.98423 23.4199 7.97305 21.754 7.28481C20.0881 6.59658 18.3024 6.2449 16.5 6.25006H16.4513C8.89625 6.27631 2.75 12.5076 2.75 20.1413V23.0001C2.75 23.4642 2.93437 23.9093 3.26256 24.2375C3.59075 24.5657 4.03587 24.7501 4.5 24.7501H28.5C28.9641 24.7501 29.4092 24.5657 29.7374 24.2375C30.0656 23.9093 30.25 23.4642 30.25 23.0001V20.0001C30.2549 18.1896 29.9 16.3962 29.2058 14.7242C28.5116 13.0521 27.492 11.5347 26.2062 10.2601ZM28.75 23.0001C28.75 23.0664 28.7237 23.1299 28.6768 23.1768C28.6299 23.2237 28.5663 23.2501 28.5 23.2501H14.9725L22.1063 13.4413C22.2182 13.2803 22.2627 13.0818 22.2301 12.8884C22.1975 12.695 22.0904 12.5221 21.9319 12.4067C21.7733 12.2913 21.5758 12.2426 21.3818 12.271C21.1877 12.2994 21.0125 12.4028 20.8937 12.5588L13.1175 23.2501H4.5C4.4337 23.2501 4.37011 23.2237 4.32322 23.1768C4.27634 23.1299 4.25 23.0664 4.25 23.0001V20.1413C4.25054 19.6765 4.27642 19.2121 4.3275 18.7501H7.5C7.69891 18.7501 7.88968 18.671 8.03033 18.5304C8.17098 18.3897 8.25 18.199 8.25 18.0001C8.25 17.8011 8.17098 17.6104 8.03033 17.4697C7.88968 17.3291 7.69891 17.2501 7.5 17.2501H4.58875C5.825 12.0501 10.3162 8.10756 15.75 7.77381V11.0001C15.75 11.199 15.829 11.3897 15.9697 11.5304C16.1103 11.671 16.3011 11.7501 16.5 11.7501C16.6989 11.7501 16.8897 11.671 17.0303 11.5304C17.171 11.3897 17.25 11.199 17.25 11.0001V7.77381C19.8877 7.93571 22.4024 8.94583 24.4192 10.6536C26.436 12.3613 27.8468 14.6751 28.4412 17.2501H25.5C25.3011 17.2501 25.1103 17.3291 24.9697 17.4697C24.829 17.6104 24.75 17.8011 24.75 18.0001C24.75 18.199 24.829 18.3897 24.9697 18.5304C25.1103 18.671 25.3011 18.7501 25.5 18.7501H28.6875C28.7288 19.1626 28.75 19.5801 28.75 20.0001V23.0001Z" fill="#FAFF69"/>
</svg>
