<svg width="72" height="72" viewBox="0 0 72 72" fill="none" xmlns="http://www.w3.org/2000/svg">
<rect x="1" y="1" width="70" height="70" rx="16" fill="#1E1E1B" stroke="#FAFF69" stroke-width="2"/>
<path d="M50.242 39.758C52.838 42.354 52.558 46.732 49.406 48.946C47.4 50.354 44.598 50.354 42.592 48.946C39.438 46.734 39.16 42.354 41.756 39.758C44.1 37.414 47.9 37.414 50.242 39.758" stroke="#FAFF69" stroke-width="2" stroke-linecap="round" stroke-linejoin="round"/>
<path d="M54.0002 52L50.2402 48.24" stroke="#FAFF69" stroke-width="2" stroke-linecap="round" stroke-linejoin="round"/>
<path d="M26 38H34" stroke="#FAFF69" stroke-width="2" stroke-linecap="round" stroke-linejoin="round"/>
<path d="M26 30H42" stroke="#FAFF69" stroke-width="2" stroke-linecap="round" stroke-linejoin="round"/>
<path d="M50 32V26C50 22.686 47.314 20 44 20H24C20.686 20 18 22.686 18 26V44C18 47.314 20.686 50 24 50H34" stroke="#FAFF69" stroke-width="2" stroke-linecap="round" stroke-linejoin="round"/>
</svg>
