<svg xmlns="http://www.w3.org/2000/svg" width="143" height="41" fill="none" viewBox="0 0 143 41"><path fill="#B3B6BD" fill-rule="evenodd" d="M39.9506 5.72793C43.3086 2.12299 47.7037.345215 53.1852.345215c5.4815 0 9.8765 1.827165 13.1358 5.382715 3.3086 3.55556 4.9876 8.39507 4.9876 14.56787v.0988c0 6.1728-1.679 11.0617-4.9876 14.6173-3.2593 3.5555-7.6543 5.3333-13.1358 5.3333S43.3086 38.5674 40 35.0119c-3.358-3.5556-4.9877-8.3951-4.9877-14.6173v-.0988c0-6.2222 1.6297-11.01231 4.9383-14.56787Zm7.8025 5.77777c1.3333-2.22221 3.1605-3.35802 5.3827-3.35802s4 1.13581 5.3827 3.35802c1.3827 2.2222 2.0247 5.2346 2.0247 9.0864v.0494c0 3.8519-.6914 6.9136-2.0247 9.1358-1.3333 2.2222-3.1111 3.3087-5.3827 3.3087s-4.0494-1.0865-5.3827-3.3087c-1.3334-2.2222-2.0247-5.2839-2.0247-9.1358v-.0494c0-3.8518.642-6.8642 2.0247-9.0864ZM15.6543 8.0983c3.9506 0 5.6296 1.77778 5.6296 5.0864 0 3.4568-1.6296 5.1358-5.6296 5.1358h-5.037V8.0983h5.037Zm10.8642 14.3704c3.8519-2.2223 5.9259-5.0371 5.9259-9.1358 0-7.25929-4.6913-12.19756-15.0617-12.19756H0V39.5057h10.6173V25.3329h5.679l6.8148 14.074h11.9012l-8.4938-16.9382ZM107.457 9.28349l4.148-8.14815h31.309V9.2341h-11.655v30.2222h-10.666V9.28349h-13.136ZM85.0864 39.4069l.0494-19.9012L99.2099 8.0983 89.679 22.3205v.2963l8 16.7408h11.951L99.1605 18.1724l8.7905-17.08644h-6.025L85.0864 13.1847V1.18472H74.4691V39.4563h10.6173v-.0494Z" clip-rule="evenodd"/></svg>