<svg xmlns="http://www.w3.org/2000/svg" width="173" height="24" fill="none"><path fill="#fff" d="M64.93 18.97a6.03 6.03 0 0 1-4.53 4.53H43.64c-2.36-.43-4.1-2.55-4.6-4.53h25.9-.01Zm37.24-17.93c-.5 1.92-2.42 3.72-4.77 4.4H81.86l.07 4.47h20.11V23.5H76.3a8.89 8.89 0 0 1 5.65-4.53h15.77v-4.65H77.59V1.04h24.58Zm16.7 18.06h19.56a6.43 6.43 0 0 1-3.87 4.4h-20.1V1.04h4.4V19.1h.02Zm53.5 4.4h-4.34v-9.06h-15.88v9.06h-4.35V9.91h24.58V23.5Zm-144-22.46a6.34 6.34 0 0 1-4.53 4.47h-7.07l-.37.12v17.8H12V5.63l-.38-.11H4.54A6.24 6.24 0 0 1 0 1.04L28.37.98v.06Zm36.57 8.81a6.02 6.02 0 0 1-4.53 4.53H43.64a6.3 6.3 0 0 1-4.6-4.53h25.9Zm0-8.87A6.04 6.04 0 0 1 60.4 5.5H43.64a6.3 6.3 0 0 1-4.6-4.53h25.9Zm108 0c-.5 1.98-2.16 4.09-4.53 4.53h-16.76a6.3 6.3 0 0 1-4.52-4.53h25.82Z"/></svg>